HIERARCHY
ROOT Hips
{
	OFFSET 0.000000 0.000000 0.000000
	CHANNELS 6 Xposition Yposition Zposition Yrotation Xrotation Zrotation
	JOINT Chest
	{
		OFFSET 0.000000 -0.009281 11.569106
		CHANNELS 3 Yrotation Xrotation Zrotation
		JOINT Chest2
		{
			OFFSET -0.000000 0.016865 9.269641
			CHANNELS 3 Yrotation Xrotation Zrotation
			JOINT Chest3
			{
				OFFSET -0.000000 0.000001 8.374491
				CHANNELS 3 Yrotation Xrotation Zrotation
				JOINT Chest4
				{
					OFFSET -0.000000 0.000001 8.374493
					CHANNELS 3 Yrotation Xrotation Zrotation
					JOINT Neck
					{
						OFFSET -0.000000 0.000002 12.152554
						CHANNELS 3 Yrotation Xrotation Zrotation
						JOINT Head
						{
							OFFSET -0.000000 0.040101 7.802319
							CHANNELS 3 Yrotation Xrotation Zrotation
							End Site
							{
								OFFSET -0.000000 0.020947 14.853096
							}
						}
					}
					JOINT RightCollar
					{
						OFFSET 2.894404 0.000001 6.791374
						CHANNELS 3 Yrotation Xrotation Zrotation
						JOINT RightShoulder
						{
							OFFSET 13.574684 0.000001 0.000000
							CHANNELS 3 Yrotation Xrotation Zrotation
							JOINT RightElbow
							{
								OFFSET 23.923903 0.000002 0.000000
								CHANNELS 3 Yrotation Xrotation Zrotation
								JOINT RightWrist
								{
									OFFSET 19.846718 0.012767 0.000000
									CHANNELS 3 Yrotation Xrotation Zrotation
									End Site
									{
										OFFSET 14.973145 0.000001 0.000000
									}
								}
							}
						}
					}
					JOINT LeftCollar
					{
						OFFSET -2.894404 0.000001 6.791374
						CHANNELS 3 Yrotation Xrotation Zrotation
						JOINT LeftShoulder
						{
							OFFSET -13.574684 -0.000001 0.000000
							CHANNELS 3 Yrotation Xrotation Zrotation
							JOINT LeftElbow
							{
								OFFSET -23.923903 -0.000002 0.000000
								CHANNELS 3 Yrotation Xrotation Zrotation
								JOINT LeftWrist
								{
									OFFSET -19.846718 0.012763 0.000000
									CHANNELS 3 Yrotation Xrotation Zrotation
									End Site
									{
										OFFSET -14.973145 -0.000001 0.000000
									}
								}
							}
						}
					}
				}
			}
		}
	}
	JOINT RightHip
	{
		OFFSET 9.469263 0.004643 0.045487
		CHANNELS 3 Yrotation Xrotation Zrotation
		JOINT RightKnee
		{
			OFFSET 0.000000 0.002661 -40.478676
			CHANNELS 3 Yrotation Xrotation Zrotation
			JOINT RightAnkle
			{
				OFFSET 0.000000 0.049106 -35.224068
				CHANNELS 3 Yrotation Xrotation Zrotation
				JOINT RightToe
				{
					OFFSET -0.000001 12.539529 -6.151390
					CHANNELS 3 Yrotation Xrotation Zrotation
					End Site
					{
						OFFSET -0.000001 5.044994 -1.291870
					}
				}
			}
		}
	}
	JOINT LeftHip
	{
		OFFSET -9.469263 0.004641 0.045487
		CHANNELS 3 Yrotation Xrotation Zrotation
		JOINT LeftKnee
		{
			OFFSET 0.000000 0.002661 -40.478676
			CHANNELS 3 Yrotation Xrotation Zrotation
			JOINT LeftAnkle
			{
				OFFSET 0.000000 0.049106 -35.224068
				CHANNELS 3 Yrotation Xrotation Zrotation
				JOINT LeftToe
				{
					OFFSET -0.000001 12.539529 -6.151390
					CHANNELS 3 Yrotation Xrotation Zrotation
					End Site
					{
						OFFSET -0.000001 5.044994 -1.291870
					}
				}
			}
		}
	}
}
MOTION
Frames: 15
Frame Time: 0.016667
10.692133 4.385668 82.925438 -8.736585 -2.889221 -110.539611 -0.104171 -4.351874 0.668794 -0.049412 -1.930402 0.302984 -0.049412 -1.930403 0.302986 -0.036098 -1.447828 0.227061 -2.465053 -21.030822 -0.022999 -4.481216 -2.906170 -0.762552 2.015628 0.746980 -2.275207 78.081555 -19.716395 48.905247 -11.437931 -14.084896 49.600502 -42.035925 30.893041 63.712346 -10.490027 0.649458 -11.001583 -75.198511 0.157168 -38.709551 -52.668292 21.425660 -41.734638 0.761396 41.123736 2.294707 -1.272914 -10.555665 -2.376923 1.161747 -5.123585 -3.405730 0.214781 6.371842 4.564839 0.059760 -0.008920 -0.033718 -0.960184 -12.473098 1.107102 1.148055 -1.329773 3.328612 -1.241882 4.628669 -3.223083 0.032095 -0.013287 0.031220 
10.649663 4.432119 82.930458 -8.770577 -2.893847 -110.594382 -0.048450 -4.369343 0.630548 -0.024345 -1.937987 0.286632 -0.024345 -1.937987 0.286635 -0.017348 -1.453502 0.214877 -2.564993 -21.065743 0.045412 -4.641952 -2.971205 -0.666394 2.007824 0.724452 -2.402743 78.204122 -19.480668 48.396299 -11.711428 -14.979331 50.191126 -41.910044 30.752165 63.826349 -10.495661 0.604118 -10.982078 -75.234896 0.153680 -38.729157 -52.664498 21.455581 -41.779389 0.769600 41.155544 2.245093 -1.320384 -10.495369 -2.340128 1.174392 -5.215630 -3.397491 0.209573 6.364736 4.593677 0.057740 -0.011143 -0.033277 -0.998080 -12.446165 1.077024 1.147015 -1.384682 3.352221 -1.218880 4.623852 -3.205125 0.028586 -0.009879 0.028504 
10.609909 4.476232 82.936066 -8.813462 -2.904687 -110.657466 0.009492 -4.395929 0.591411 0.000342 -1.949329 0.270109 0.000341 -1.949329 0.270109 0.001118 -1.461997 0.202565 -2.663247 -21.097396 0.123679 -4.796828 -3.029708 -0.551911 1.990819 0.730204 -2.484004 78.143689 -19.337193 47.882946 -13.013782 -15.963402 50.993140 -41.603232 30.475966 64.052353 -10.505265 0.559259 -10.964954 -75.256903 0.148945 -38.740925 -52.674614 21.500918 -41.856011 0.676826 41.149127 2.166305 -1.362611 -10.456329 -2.319900 1.177435 -5.288799 -3.358956 0.208143 6.349356 4.604053 0.055359 -0.012949 -0.031533 -1.038128 -12.433494 1.070893 1.148311 -1.436460 3.370266 -1.198569 4.620135 -3.160382 0.027698 -0.006743 0.027300 
10.571030 4.517192 82.942001 -8.863974 -2.916399 -110.720351 0.058847 -4.440804 0.553715 0.020492 -1.969186 0.254326 0.020492 -1.969186 0.254327 0.016186 -1.476881 0.190793 -2.745291 -21.118757 0.203984 -4.921905 -3.068523 -0.429350 1.967294 0.719337 -2.532197 78.042568 -19.341856 47.398624 -14.367409 -16.614900 51.739042 -41.403893 30.283361 64.221844 -10.516783 0.545299 -10.953372 -75.264539 0.144721 -38.764646 -52.667056 21.567658 -41.938195 0.498712 41.119624 2.098728 -1.396585 -10.430269 -2.294738 1.170075 -5.351677 -3.311290 0.206248 6.331511 4.580232 0.053620 -0.015666 -0.028415 -1.074966 -12.428325 1.079033 1.147946 -1.491886 3.390200 -1.184412 4.619481 -3.129866 0.027988 -0.003261 0.025580 
10.529249 4.553758 82.947525 -8.915724 -2.927504 -110.788639 0.099634 -4.489182 0.532989 0.036693 -1.990940 0.245769 0.036693 -1.990941 0.245773 0.028318 -1.493192 0.184432 -2.808579 -21.140549 0.273205 -5.016187 -3.108004 -0.321404 1.966067 0.737217 -2.569793 78.019659 -19.405758 46.885881 -14.771507 -16.756571 52.126392 -41.419377 30.289942 64.186826 -10.526413 0.543550 -10.962782 -75.276813 0.162147 -38.789638 -52.660205 21.624343 -42.002013 0.333069 41.149267 2.042407 -1.430253 -10.402724 -2.231305 1.163939 -5.415735 -3.291807 0.201145 6.313563 4.567508 0.054341 -0.017831 -0.024184 -1.110835 -12.418130 1.116510 1.147694 -1.558657 3.394658 -1.175030 4.626526 -3.112446 0.028746 -0.001494 0.022818 
10.482805 4.590039 82.952072 -8.960440 -2.937288 -110.856784 0.128376 -4.523359 0.511833 0.048576 -2.006458 0.237225 0.048577 -2.006458 0.237227 0.037207 -1.504824 0.178059 -2.858796 -21.172777 0.340516 -5.087162 -3.166550 -0.212764 1.981661 0.745479 -2.587378 78.219101 -19.451042 46.292044 -14.026822 -16.488200 52.183963 -41.611766 30.449533 64.010941 -10.531779 0.520566 -10.953816 -75.306954 0.199397 -38.809541 -52.649414 21.666453 -42.049257 0.149933 41.196214 1.965165 -1.456828 -10.361997 -2.148343 1.158912 -5.485103 -3.286023 0.188359 6.296502 4.522048 0.056841 -0.020439 -0.021027 -1.144249 -12.392127 1.168229 1.149356 -1.637291 3.387432 -1.167623 4.639230 -3.101079 0.028190 -0.001778 0.019385 
10.429825 4.627643 82.956406 -8.995278 -2.944481 -110.920804 0.153787 -4.548144 0.491437 0.059825 -2.017996 0.228675 0.059825 -2.017997 0.228677 0.045619 -1.513476 0.171686 -2.899765 -21.211272 0.401947 -5.142999 -3.236702 -0.111866 2.006528 0.738909 -2.625390 78.592357 -19.375606 45.646492 -12.765427 -16.221754 52.190555 -41.948935 30.659568 63.769706 -10.534496 0.475852 -10.946227 -75.357737 0.256468 -38.838354 -52.612753 21.712512 -42.076486 -0.073836 41.194186 1.859905 -1.493894 -10.301068 -2.064979 1.171635 -5.566795 -3.276555 0.168132 6.278088 4.496392 0.059941 -0.020139 -0.018482 -1.172824 -12.352418 1.220747 1.149255 -1.713102 3.360602 -1.157214 4.646133 -3.101827 0.025661 -0.002424 0.015554 
10.373639 4.665063 82.961861 -9.023291 -2.952015 -110.980670 0.185103 -4.556749 0.468878 0.073557 -2.021995 0.218082 0.073557 -2.021994 0.218080 0.055883 -1.516470 0.163789 -2.934711 -21.260231 0.456506 -5.189781 -3.326354 -0.021313 2.042333 0.669699 -2.657108 78.922317 -19.119820 45.067641 -11.841208 -16.387388 52.352054 -42.290431 30.808190 63.627194 -10.536972 0.397775 -10.927144 -75.409113 0.292342 -38.868489 -52.547804 21.773461 -42.101388 -0.320778 41.154000 1.750521 -1.527464 -10.229899 -1.981402 1.186444 -5.652599 -3.253370 0.145924 6.255918 4.484040 0.061208 -0.016737 -0.015996 -1.203798 -12.303776 1.259564 1.157022 -1.786691 3.349935 -1.149360 4.648006 -3.078034 0.023642 -0.003317 0.012802 
10.315726 4.702373 82.968262 -9.045774 -2.955923 -111.045338 0.220131 -4.574160 0.444434 0.088429 -2.030180 0.206566 0.088429 -2.030181 0.206569 0.067002 -1.522606 0.155204 -2.968386 -21.294582 0.509137 -5.235084 -3.388936 0.065602 2.091420 0.591674 -2.692602 78.978488 -18.768195 44.651440 -11.891093 -17.119053 52.755384 -42.377994 30.805482 63.679773 -10.543455 0.359004 -10.915434 -75.438989 0.306764 -38.885537 -52.486162 21.854295 -42.126148 -0.560813 41.107340 1.632651 -1.557076 -10.152908 -1.889709 1.192105 -5.732418 -3.209812 0.126174 6.229542 4.440335 0.061408 -0.014384 -0.011855 -1.235447 -12.256192 1.289935 1.164705 -1.843814 3.351616 -1.142227 4.640017 -3.045929 0.021067 -0.003309 0.009225 
10.259112 4.739348 82.974716 -9.062993 -2.961441 -111.118968 0.257954 -4.598701 0.410222 0.105037 -2.041261 0.191046 0.105037 -2.041262 0.191046 0.079408 -1.530915 0.143624 -3.003897 -21.314941 0.570130 -5.281539 -3.425257 0.166633 2.089405 0.642686 -2.803379 78.859882 -18.537709 44.231649 -13.047328 -18.231307 53.439926 -42.077411 30.543906 63.932394 -10.556970 0.351534 -10.899704 -75.435252 0.329455 -38.880934 -52.429270 21.932651 -42.143609 -0.773186 41.061502 1.543596 -1.582884 -10.082200 -1.787222 1.197458 -5.789116 -3.171456 0.110298 6.192704 4.379731 0.058170 -0.013648 -0.007716 -1.264181 -12.218559 1.322221 1.171464 -1.876069 3.357058 -1.136046 4.622707 -3.037440 0.019252 -0.004266 0.005257 
10.204729 4.772410 82.981476 -9.089034 -2.966837 -111.202590 0.291747 -4.629933 0.366972 0.119101 -2.054901 0.171721 0.119101 -2.054902 0.171721 0.089894 -1.541144 0.129177 -3.033364 -21.326994 0.636649 -5.315577 -3.445788 0.279124 2.067472 0.686247 -2.864376 78.657374 -18.407838 43.801153 -14.769283 -19.281294 54.275876 -41.623422 30.220561 64.263877 -10.572851 0.348507 -10.869316 -75.398745 0.360728 -38.875961 -52.356976 22.016510 -42.150955 -0.994724 41.013906 1.492220 -1.612276 -10.028718 -1.678397 1.203376 -5.829990 -3.164725 0.100615 6.152037 4.344947 0.052218 -0.015184 -0.006020 -1.296458 -12.195059 1.363221 1.175471 -1.901402 3.367371 -1.131700 4.602646 -3.011938 0.019484 -0.003152 0.003663 
10.152398 4.804571 82.988884 -9.127719 -2.960703 -111.293315 0.291580 -4.672676 0.341921 0.123993 -2.074835 0.159013 0.123993 -2.074835 0.159012 0.093525 -1.556094 0.119669 -3.029326 -21.329496 0.685522 -5.294111 -3.448480 0.368925 2.034077 0.695422 -2.936337 78.483805 -18.490282 43.408051 -16.040909 -19.815332 54.855271 -41.447241 30.119939 64.417399 -10.561436 0.362054 -10.863285 -75.353352 0.402967 -38.888918 -52.239182 22.094023 -42.113212 -1.187967 40.953695 1.462521 -1.659145 -9.990171 -1.575291 1.204765 -5.860114 -3.173372 0.095468 6.092562 4.360347 0.049022 -0.000783 -0.002487 -1.340664 -12.182838 1.389865 1.175999 -1.922545 3.393900 -1.130274 4.584137 -2.991991 0.020164 -0.004525 0.001143 
10.099147 4.829511 82.995605 -9.164657 -2.969821 -111.387053 0.284953 -4.722533 0.328727 0.120704 -2.096936 0.153656 0.120704 -2.096936 0.153657 0.091046 -1.572672 0.115642 -2.997552 -21.326586 0.721349 -5.226196 -3.441011 0.442891 2.044016 0.719030 -2.964249 78.481619 -18.662420 42.937247 -15.937779 -19.663235 54.904264 -41.494980 30.253329 64.321633 -10.525882 0.378787 -10.868335 -75.319214 0.460929 -38.925846 -52.123998 22.167280 -42.060780 -1.251752 40.912557 1.475739 -1.677198 -9.964520 -1.475339 1.195447 -5.870972 -3.186531 0.088321 6.041152 4.353887 0.046757 -0.003480 -0.000323 -1.366111 -12.172130 1.393029 1.173881 -1.955569 3.426432 -1.131840 4.571218 -2.975057 0.021661 -0.002509 -0.001226 
10.043344 4.845295 83.002342 -9.193526 -2.996483 -111.480046 0.296168 -4.742422 0.314509 0.119159 -2.104866 0.149844 0.119159 -2.104866 0.149846 0.089875 -1.578621 0.112782 -2.963914 -21.346762 0.750787 -5.156471 -3.476646 0.506593 2.052316 0.684866 -2.981441 78.742307 -18.766047 42.355335 -14.586460 -19.128343 54.627969 -41.769592 30.502973 64.056594 -10.517047 0.336715 -10.856237 -75.297269 0.536985 -38.955793 -52.016815 22.230980 -41.997877 -1.258202 40.914097 1.459498 -1.668964 -9.934779 -1.380884 1.179981 -5.881105 -3.190880 0.081673 6.002239 4.380501 0.044337 -0.021790 0.001435 -1.364217 -12.157377 1.372546 1.167493 -2.000150 3.459182 -1.134613 4.562429 -2.906276 0.021344 0.003803 -0.004182 
9.985592 4.863775 83.008224 -9.213344 -3.010441 -111.575846 0.300232 -4.743234 0.307065 0.121579 -2.105466 0.147410 0.121579 -2.105467 0.147410 0.091681 -1.579071 0.110966 -2.942539 -21.372058 0.776108 -5.110122 -3.522244 0.559469 2.088256 0.619047 -2.992695 79.106267 -18.641152 41.754732 -13.071047 -18.821315 54.464803 -42.214527 30.759719 63.806678 -10.525501 0.284233 -10.841457 -75.294776 0.638335 -38.960570 -51.918310 22.278260 -41.921061 -1.316406 40.904978 1.423681 -1.667274 -9.896045 -1.300545 1.160374 -5.885500 -3.178648 0.077467 5.947342 4.394083 0.039989 -0.025495 0.003084 -1.365390 -12.121405 1.352991 1.153740 -2.058144 3.479559 -1.129551 4.566079 -2.861120 0.016187 0.003361 -0.006459 
